<svg width="521" height="333" viewBox="0 0 521 333" fill="none" xmlns="http://www.w3.org/2000/svg">
<path fill-rule="evenodd" clip-rule="evenodd" d="M0.984375 24.6408V174.695L32.6443 177.69C34.3708 172.699 34.5485 174.97 36.0211 172.524C35.4879 172.25 33.2283 172.125 32.4666 170.029C31.7049 167.933 32.6951 166.36 31.8319 163.615C31.1464 161.469 30.2324 161.12 30.2324 158.624C30.2324 156.927 30.8163 154.033 31.0194 152.186C32.7713 151.213 35.8941 150.589 36.9604 148.343C38.7884 144.45 36.9604 144.874 40.8703 142.429C43.2485 141.027 46.0601 140.514 48.7917 140.981C51.4611 141.671 54.2865 141.487 56.84 140.457C58.5156 136.864 60.2167 137.413 59.9882 133.22C59.9882 130.899 59.4042 132.147 58.4648 129.851C61.0037 128.554 58.4648 130.55 61.5877 128.179C62.6286 127.381 62.2224 126.258 65.1167 129.627C73.8251 128.204 71.2355 129.627 73.9521 135.591H77.7604C76.2117 131.798 76.364 136.614 72.378 128.828C71.2862 126.707 71.6671 126.507 69.8391 125.284C67.6049 123.737 67.808 124.81 66.437 122.365C69.9914 117.149 74.2314 121.292 78.8775 120.917L80.4009 116.675C80.4009 116.276 79.9185 116.924 80.5532 115.502C83.5745 116.6 87.332 125.11 92.2829 126.632C95.8373 127.73 98.427 125.085 99.8995 129.527C101.804 135.94 101.728 130.525 105.51 135.84C109.714 136.484 113.989 136.526 118.205 135.965C118.586 135.965 118.967 136.14 119.627 136.689C120.287 137.238 121.937 138.935 122.699 139.733C122.14 141.405 121.912 140.332 121.15 141.904L123.689 143.701V147.345C121.962 148.068 122.724 147.345 121.328 148.418C122.724 150.04 123.638 150.165 124.958 151.662C127.98 150.514 130.214 147.395 134.048 146.97C139.125 146.371 139.455 150.464 140.776 154.132C142.096 157.801 142.096 155.63 144.736 157.277C148.291 159.498 142.604 158.699 151.21 165.063C152.509 166.332 154.212 167.125 156.034 167.309C156.491 171.002 156.238 170.203 159.792 172.3C165.403 175.644 158.726 174.146 164.286 179.287C167.547 180.459 169.056 180.756 173.28 183.427C175.048 185.407 180.55 189.19 182.634 190.847L195.159 184.403L175.482 150.714C177.767 148.218 181.931 146.521 184.343 144.175C182.134 137.413 181.804 140.307 182.693 131.698C183.302 125.284 182.896 124.087 185.511 118.696C188.888 111.659 192.798 104.447 195.666 97.5843C193.128 96.636 190.233 96.4863 187.796 95.6129C185.866 94.9141 186.349 95.1637 185.486 93.1174C185.003 91.8946 184.572 90.8714 184.064 89.6736C182.659 86.4014 180.565 83.4587 177.92 81.0391C177.006 80.016 176.65 79.2923 175.711 78.2941L157.355 57.4067C155.831 53.8881 157.583 53.2642 154.054 50.9184L137.704 37.4427C135.876 35.8206 134.2 34.4231 132.321 32.9508C122.013 24.9652 127.523 26.9616 113.914 21.2968C101.22 16.0313 93.6031 10.3665 83.4475 2.30601C80.9594 0.234738 80.8832 -0.713553 77.1511 0.658974C65.066 5.00115 43.8154 11.2898 31.4511 14.9832C21.2955 18.2024 11.1399 21.8458 0.984375 24.6408Z" fill="#0256BA"/>
<path fill-rule="evenodd" clip-rule="evenodd" d="M187.466 94.2902L197.622 96.586C196.631 100.654 189.345 113.855 187.06 118.522C184.318 124.211 184.521 124.86 184.039 131.798C183.125 141.78 184.039 137.512 185.968 144.724C183.246 146.928 180.312 148.867 177.209 150.514C180.407 157.06 184.019 163.403 188.025 169.505L200.491 168.606C202.021 171.791 204.301 174.571 207.142 176.717C213.972 180.809 210.113 178.913 213.007 184.952L216.689 185.775C217.704 186.1 218.948 186.649 219.888 186.998C228.165 190.242 226.87 188.995 231.287 193.112C236.848 198.278 233.649 197.629 238.574 197.554L239.056 196.805L239.463 196.057C241.214 192.089 239.615 190.816 244.109 188.82C246.648 191.465 245.226 191.066 245.835 194.435L255.838 195.982L257.209 193.112L262.287 192.488C263.684 192.114 262.922 192.339 263.684 191.939L264.496 188.745C268.914 188.171 266.781 188.945 269.574 197.779C281.684 199.301 274.855 199.725 285.569 197.779L285.34 205.515C282.167 206.663 282.294 204.641 280.846 208.01C280.112 209.726 279.485 211.485 278.968 213.276C273.89 212.852 273.89 211.554 269.675 213.276C271.529 217.269 271.554 214.474 270.945 220.563L267.492 221.461C267.01 224.855 268.584 224.73 261.779 227.575C261.779 231.318 262.998 230.894 264.953 233.365C266.908 235.835 266.654 235.361 270.488 236.135C274.322 236.908 275.87 243.272 276.403 246.641L279.907 245.168C278.536 239.928 278.714 243.871 279.323 238.505C279.932 233.14 277.114 236.16 276.607 232.117C278.181 229.621 282.725 228.773 286.204 228.798L287.168 220.064C300.447 219.365 292.018 229.771 308.089 221.736C306.972 219.39 306.21 221.885 307.657 217.518C311.389 206.238 306.743 211.454 308.597 206.513C309.155 205.066 310.247 203.643 310.856 202.296C315.528 201.996 312.989 203.219 315.934 203.443C317.508 203.443 318.651 202.595 320.326 202.121L323.043 204.866L328.806 196.306C326.927 190.766 326.724 192.788 322.814 190.342L322.154 182.856L325.785 181.658C325.049 177.091 323.246 172.399 322.281 167.733C321.342 162.742 320.961 157.451 320.174 152.286L304.103 150.04V133.869H304.458L306.134 133.42L306.667 109.812L299.761 112.532C296.181 107.541 292.855 95.9372 288.285 92.9426C285.747 91.2457 280.491 88.7003 279.069 86.8286C271.63 77.1461 278.13 74.0516 264.141 81.3635C259.215 83.859 260.205 83.6593 253.604 83.4847C245.429 83.2351 237.888 82.3866 229.815 81.5382C219.786 80.4651 216.866 81.7877 207.473 83.7342C199.837 85.3022 192.085 86.2619 184.292 86.604L187.466 94.2902Z" fill="#0256BA"/>
<path fill-rule="evenodd" clip-rule="evenodd" d="M201.034 171.946C201.034 171.771 200.374 171.023 200.272 170.923C199.997 170.511 199.683 170.127 199.333 169.775L188.67 170.748L196.54 185.022C191.084 187.879 188.67 188.176 183.54 192.034C187.764 198.267 193.544 202.166 189.508 206.084C190.904 207.756 191.793 207.856 192.935 209.104C193.091 210.425 193.433 211.718 193.951 212.947C194.535 213.99 194.791 215.18 194.687 216.366C195.093 224.202 194.433 226.523 199.257 229.467C210.084 236.184 220.48 243.552 230.384 251.528C231.653 252.601 231.856 252.601 232.923 253.424C235.462 255.57 232.034 254.522 244.602 263.631C245.46 264.503 246.503 265.179 247.657 265.611C248.811 266.042 250.048 266.218 251.279 266.126C258.895 265.952 253.564 261.135 269.889 258.964L268.315 255.52C270.493 252.692 272.869 250.015 275.424 247.51C271.565 231.963 270.346 241.321 264.278 234.583C263.491 233.735 262.298 232.487 261.409 231.414C260.77 230.824 260.387 230.016 260.34 229.155C260.292 228.295 260.584 227.451 261.155 226.797C262.196 225.624 263.922 225.699 265.09 224.651C266.664 223.253 265.649 223.104 266.385 220.608L269.737 219.485L269.965 215.842L267.426 213.346C274.408 210.052 270.117 211.674 277.963 212.074L280.679 205.286L284.234 204.587V199.796C280.679 199.945 280.831 200.844 276.617 200.22C273.85 199.821 271.209 199.546 268.492 199.022C267.985 197.35 267.629 195.953 267.248 194.306C266.081 189.14 266.334 190.687 265.319 189.963L264.456 193.732L257.905 194.505L256.763 197.65C238.991 195.454 245.82 195.978 243.865 190.687C240.565 191.635 241.91 195.129 239.6 198.972H234.065C233.227 197.999 233.405 197.55 232.593 196.477C228.276 190.413 216.267 186.495 212.281 187.119C209.438 181.354 212.281 181.579 206.569 178.085C202.761 175.489 203.548 175.589 201.034 171.946Z" fill="#0256BA"/>
<path fill-rule="evenodd" clip-rule="evenodd" d="M278.662 283.774C281.557 285.645 284.223 287.118 286.838 288.765C290.976 291.26 288.945 292.184 295.546 293.207C300.218 293.955 298.263 292.383 300.802 292.558C302.858 292.733 301.411 293.406 305.118 294.654C313.191 297.349 310.703 297.15 313.318 299.645C316.314 302.565 316.01 299.945 323.017 302.141C324.388 297.923 331.268 291.011 336.575 288.241C337.615 282.152 335.94 284.023 340.104 280.305C342.037 278.4 343.804 276.338 345.384 274.141C348.482 274.74 350.97 275.988 349.548 271.646C348.355 268.002 347.593 268.701 349.193 264.833C352.036 264.159 355.261 265.082 354.855 261.514C354.499 258.419 352.036 257.895 349.777 257.346C344.699 256.124 345.791 255.3 343.531 254.252C342.033 253.578 338.453 252.755 336.727 252.231L335.229 254.526L329.846 254.002L329.44 249.685L324.007 248.812L321.976 251.682C316.517 251.856 316.39 249.71 312.201 251.133C309.235 252.619 305.864 253.135 302.579 252.605C298.263 242.947 294.759 246.266 292.119 246.466C290.367 246.466 287.904 246.466 286.101 246.466C273.407 246.142 276.758 249.935 269.853 254.651C270.056 257.147 270.665 256.972 271.35 259.268C265.156 262.911 258.199 261.015 255.203 267.453C262.084 271.596 254.645 269.949 271.604 277.859C275.667 279.806 275.184 281.478 278.662 283.774Z" fill="#0256BA"/>
<path fill-rule="evenodd" clip-rule="evenodd" d="M383.443 232.341C388.521 232.466 389.181 233.439 389.511 229.422L391.034 231.393L393.091 229.921C392.659 228.349 392.228 228.623 391.365 227.251C390.868 226.396 390.54 225.456 390.4 224.481C395.097 223.258 394.97 222.933 395.478 221.236C391.085 219.29 385.093 225.279 380.676 221.785C381.336 220.138 381.615 221.012 383.494 219.614L383.113 216.32C375.496 216.32 382.428 218.317 366.103 216.844C366.712 214.349 369.073 209.358 369.2 207.586C369.352 205.34 368.032 205.091 368.794 202.595C369.175 201.397 370.114 199.8 370.622 198.353C369.657 197.322 368.477 196.51 367.162 195.971C365.847 195.433 364.429 195.181 363.005 195.233C363.894 191.116 363.462 193.611 366.433 191.939C367.27 188.795 367.347 189.968 366.433 186.948C366.864 186.474 367.778 185.75 367.804 185.601C367.829 185.451 369.022 185.002 367.042 184.453C364.503 183.704 367.042 184.602 363.945 185.875L363.767 181.658C360.898 181.109 361.228 182.007 358.283 181.059C351.758 178.988 350.666 182.481 343.481 182.207C337.769 182.007 326.902 180.535 323.17 184.228L323.805 189.219C327.232 191.715 326.953 188.196 330.203 196.331L324.135 205.739L332.158 207.361C332.158 211.18 331.066 213.226 331.65 215.197L332.031 215.996C333.097 217.893 333.656 216.37 333.529 219.589C333.529 221.486 332.97 221.336 333.224 223.632C336.165 225.685 339.574 226.996 343.151 227.45C349.498 228.948 349.321 227.6 349.93 234.263C345.918 235.735 344.573 236.759 343.329 242.498C350.057 245.343 345.334 243.921 351.453 241.625C363.056 237.283 361.609 243.671 370.393 243.322C374.963 243.147 375.471 244.195 380.549 243.921L383.342 239.703C382.529 237.008 381.894 238.505 382.453 236.234C382.91 234.971 383.242 233.668 383.443 232.341Z" fill="#0256BA"/>
<path fill-rule="evenodd" clip-rule="evenodd" d="M366.965 271.646C370.393 271.321 370.901 271.346 370.291 268.526C369.479 264.883 369.276 268.077 367.753 264.109C363.867 263.589 359.917 263.775 356.099 264.658L354.144 265.432C352.316 265.956 351.605 265.432 350.006 266.28C348.254 270.373 353.687 271.471 349.726 276.687L346.197 275.663C339.114 282.751 338.175 282.726 337.946 289.239C332.868 290.986 332.589 292.159 329.822 295.303C328.146 297.224 324.008 300.519 324.008 303.164C324.008 305.809 325.734 304.287 322.687 307.231C320.707 309.153 321.012 308.878 320.682 312.372C319.818 321.506 320.301 317.039 322.967 323.278C321.316 324.675 320.834 323.402 319.514 325.973L323.5 328.044C326.039 327.121 323.5 327.071 327.384 326.871C328.663 326.997 329.955 326.843 331.167 326.422C334.747 325.374 335.509 325.823 337.134 328.917C338.403 331.238 337.489 329.766 339.926 331.064C341.754 332.087 340.637 332.211 342.897 332.511C345.266 332.646 347.604 331.927 349.473 330.49C352.57 333.309 351.478 330.49 358.206 332.985C360.161 328.418 359.857 330.664 359.146 325.499C358.689 322.229 363.335 315.342 365.214 312.572C367.092 309.802 367.981 309.752 367.753 305.26C371.916 304.961 370.622 304.961 373.211 306.258C373.973 301.267 372.272 303.763 374.988 300.469C375.952 299.228 376.442 297.693 376.373 296.133C376.303 294.574 375.678 293.087 374.608 291.934C372.424 288.964 371.409 291.135 368.743 286.943C367.169 287.617 367.981 287.642 366.204 287.742C368.184 282.177 365.798 285.021 366.585 279.781C366.991 276.911 366.077 276.986 366.382 275.613C367.092 272.818 367.296 276.162 366.965 271.646Z" fill="#0256BA"/>
<path fill-rule="evenodd" clip-rule="evenodd" d="M430.033 167.591C430.203 167.512 430.42 167.412 430.59 167.658C431.637 167.851 432.042 167.524 432.413 167.224C432.906 166.826 433.339 166.476 435.135 167.458C437.006 168.144 438.529 169.524 439.375 171.301C438.638 172.654 438.245 172.82 437.809 173.005C437.344 173.202 436.83 173.42 435.795 175.12L437.166 178.089C437.727 179.547 438.268 180.674 438.7 181.576C440.088 184.468 440.357 185.03 436.582 186.724C436.811 189.868 436.582 191.216 434.043 192.363L428.102 195.258C427.614 195.653 427.476 195.864 427.364 196.035C427.179 196.317 427.066 196.49 425.563 197.205C424.363 197.736 423.101 198.121 421.806 198.353C418.427 199.078 418.255 199.365 417.946 199.879C417.724 200.25 417.43 200.74 415.814 201.597C413.697 200.738 412.91 199.256 412.215 197.945C411.577 196.741 411.015 195.682 409.568 195.383C405.204 194.496 405.218 199.869 405.226 202.971C405.226 203.099 405.227 203.224 405.227 203.344C403.969 203.818 402.762 204.411 401.622 205.115C403.168 207.776 404.29 210.655 404.947 213.65C404.841 214.025 404.201 214.328 403.554 214.635C403.125 214.838 402.692 215.043 402.409 215.272C403.433 216.332 403.785 216.217 403.851 216.31C403.91 216.391 403.746 216.634 403.627 217.992C399.159 219.839 397.128 214.573 397.509 213.001C398.314 209.605 397.996 208.367 397.583 206.755C397.28 205.571 396.925 204.186 396.925 201.597C394.236 199.82 391.78 197.725 389.613 195.358C389.069 194.821 388.558 194.332 388.088 193.882C384.827 190.76 383.564 189.551 387.404 187.522C387.107 186.066 386.171 185.785 386.095 185.352C385.995 184.784 387.38 183.955 393.649 179.861C395.943 178.371 395.589 177.239 395.216 176.045C394.846 174.861 394.457 173.616 396.62 171.9C401.473 168.065 401.829 168.3 402.488 168.735C402.69 168.869 402.922 169.022 403.323 169.08C403.891 169.149 404.311 169.051 404.853 168.924C405.499 168.773 406.317 168.581 407.766 168.581C406.438 165.865 407.274 165.678 408.531 165.398C408.741 165.351 408.962 165.302 409.187 165.237C410.662 164.839 411.125 164.803 411.355 164.552C411.6 164.285 411.579 163.773 412.234 162.318C412.973 160.597 413.295 160.546 414.546 160.347C414.929 160.286 415.398 160.212 415.992 160.072C424.602 158.079 424.669 157.621 424.778 156.874C424.856 156.339 424.955 155.657 428.229 154.157C431.581 152.668 431.808 151.606 431.977 150.821C432.141 150.053 432.249 149.549 435.16 149.166L434.983 145.273C435.837 144.997 436.498 144.607 437.092 144.257C437.946 143.754 438.66 143.334 439.603 143.452C440.714 143.776 441.237 144.858 441.663 145.738C442.414 147.291 442.86 148.213 445.697 143.227C447.786 139.578 448.491 139.54 449.433 139.489C449.773 139.471 450.144 139.451 450.622 139.259C451.315 138.981 451.559 138.765 451.801 138.551C451.994 138.38 452.186 138.211 452.602 138.011C453.714 137.404 454.287 137.326 454.723 137.267C455.363 137.18 455.707 137.133 457.02 135.516C459.185 136.166 461.226 137.161 463.063 138.461C464.898 140.428 463.187 141.106 461.398 141.814C460.737 142.075 460.066 142.341 459.559 142.678C458.752 143.21 458.217 143.775 457.735 144.286C456.836 145.236 456.117 145.997 454.151 145.997C453.749 145.985 453.403 145.945 453.097 145.909C452.147 145.798 451.586 145.733 450.952 146.696C450.13 147.927 450.367 148.52 450.541 148.956C450.717 149.395 450.829 149.676 449.733 150.289C449.436 150.463 448.971 150.49 448.418 150.523C447.696 150.566 446.824 150.617 445.976 151.013C444.97 151.482 444.616 151.974 444.193 152.565C443.986 152.853 443.762 153.164 443.437 153.508C442.992 153.979 442.701 154.183 442.416 154.383C442.067 154.627 441.728 154.865 441.127 155.58C440.532 156.287 440.329 156.794 440.124 157.307C439.952 157.735 439.779 158.168 439.375 158.724C437.891 160.793 435.546 161.946 433.587 162.909C431.86 163.758 430.432 164.459 430.159 165.512C429.567 167.807 429.72 167.736 430.033 167.591ZM405.484 175.01C405.061 177.042 401.984 178.51 401.984 178.51C401.984 178.51 400.702 178.007 399.984 177.51C399.076 176.881 397.984 175.51 397.984 175.51C397.984 175.51 398.463 173.63 398.984 172.51C399.465 171.478 400.484 170.01 400.484 170.01C400.484 170.01 401.719 169.854 402.484 170.01C403.841 170.286 405.484 171.9 405.484 171.9C405.484 171.9 405.735 173.806 405.484 175.01Z" fill="#0256BA"/>
<path d="M401.5 171C399 172 399 175.5 399 175.5C399 175.5 400.609 177.718 402 177.5C402.965 177.349 403.488 176.831 404 176C404.422 175.314 404.5 174 404.5 174C405 172 402.33 170.668 401.5 171Z" fill="#0256BA"/>
<path fill-rule="evenodd" clip-rule="evenodd" d="M331.04 216.645C329.796 214.873 330.076 215.671 330.406 212.926C330.609 211.279 330.837 209.832 330.939 208.185C320.783 207.312 322.281 206.089 320.047 203.543C318.498 203.893 317.508 204.741 315.858 204.716C313.319 204.716 314.538 203.868 311.999 203.493C307.505 207.686 310.882 209.058 310.577 212.477C310.228 213.968 309.735 215.422 309.104 216.819C307.683 221.286 309.104 217.793 309.409 221.81C306.551 224.509 302.759 226.043 298.796 226.103C295.394 225.653 294.277 220.712 288.641 221.112L287.27 229.946C283.258 229.946 280.059 229.946 277.952 232.591C279.095 234.038 279.247 233.14 280.11 234.687C281.634 237.457 279.729 239.678 280.11 242.174L281.634 245.093C284.502 245.093 287.625 245.343 290.494 245.343C293.223 244.984 295.969 244.767 298.72 244.694C300.178 247.102 301.879 249.36 303.798 251.432C309.206 252.231 311.567 249.161 314.868 249.236C319.26 249.236 319.108 253.653 323.678 247.489L330.583 248.662C332.056 253.229 328.679 252.755 334.874 253.254C334.976 252.713 335.183 252.196 335.483 251.732C336.118 250.708 335.61 251.432 336.372 250.783C337.565 251.133 346.299 254.776 348.203 252.131C350.031 245.093 345.207 245.642 342.008 242.348C344.852 234.288 344.243 235.885 347.619 233.864C347.998 233.657 348.355 233.414 348.686 233.14C348.076 228.898 349.727 230.12 340.917 228.149C337.761 227.561 334.778 226.291 332.183 224.431C331.396 219.24 333.706 220.538 331.04 216.645Z" fill="#0256BA"/>
<path fill-rule="evenodd" clip-rule="evenodd" d="M476.9 169.929C477.128 168.157 477.585 167.284 476.9 165.911C475.681 166.385 475.452 165.911 475.173 168.057C474.412 173.872 477.712 169.13 472.406 175.818L469.359 174.72C468.327 177.478 467.978 180.438 468.344 183.355C466.16 182.406 467.48 182.831 465.805 180.859C464.078 181.907 465.449 180.859 464.154 182.806L463.063 180.061C459.229 179.786 461.362 180.435 459.483 180.759C456.309 181.333 459.838 180.385 456.385 180.21C452.933 180.036 454.024 181.882 451.181 178.588C448.642 179.562 452.069 179.512 448.794 180.061C448.591 177.565 450.673 171.326 445.519 169.505C442.32 168.382 440.619 172.923 437.064 174.496C437.502 176.926 438.361 179.264 439.603 181.408C442.015 185.601 439.096 184.228 440.416 187.073L448.032 197.429L460.118 195.757L458.62 199.65L462.098 201.622C463.562 200.558 464.892 199.327 466.059 197.953C469.715 194.535 470.324 197.429 471.644 194.285C472.584 192.039 471.644 193.287 472.888 192.214C474.057 191.62 475.318 191.223 476.62 191.041C482.155 189.718 480.175 190.167 485.075 191.041C486.288 191.198 487.52 190.932 488.554 190.289C489.589 189.646 490.361 188.667 490.737 187.522C491.981 184.128 490.457 182.881 490.356 181.333C490.374 181.226 490.374 181.116 490.356 181.009C488.528 181.708 489.696 181.234 488.147 182.631C486.674 182.107 482.764 181.159 481.977 180.734C481.165 177.84 483.171 177.989 482.561 173.897C480.581 172.474 481.749 174.196 480.022 171.801C478.626 170.004 479.616 170.054 476.9 169.929Z" fill="#0256BA"/>
<path fill-rule="evenodd" clip-rule="evenodd" d="M450.596 218.092C455.674 217.294 453.541 218.092 455.166 215.023C459.558 215.023 457.451 214.424 460.447 212.827C464.357 211.928 472.456 217.568 473.7 217.818V217.219C474.233 215.397 474.385 215.746 476.239 215.871V220.363C477.492 220.232 478.646 219.633 479.463 218.691L481.342 216.72C481.342 216.545 481.52 216.52 481.621 216.42C484.998 217.892 483.373 216.42 486.318 215.497C486.318 213.825 485.887 215.147 485.074 212.777C487.359 211.329 487.258 210.905 488.857 208.934C491.218 205.914 491.396 208.934 491.675 204.916C488.933 203.468 484.312 203.893 481.52 202.745C479.159 201.821 480.504 200.873 478.448 199.875C476.794 199.44 475.079 199.271 473.37 199.376L471.593 196.731C467.023 197.779 465.195 200.798 462.757 203.394L457.172 200.374L458.238 197.205C455.629 197.407 453.034 197.765 450.469 198.278C447.575 198.927 442.599 203.568 440.491 205.764C439.095 207.237 440.187 206.488 437.952 207.461C431.174 210.306 438.46 212.078 442.573 212.452C442.243 217.793 441.735 215.422 444.071 218.941C446.153 218.791 448.387 218.466 450.596 218.092Z" fill="#0256BA"/>
<path fill-rule="evenodd" clip-rule="evenodd" d="M160.934 177.94C159.969 176.043 160.68 175.893 159.944 174.546C158.649 172.05 156.516 173.822 154.866 170.353C153.521 167.533 155.374 169.305 152.505 167.858C149.56 166.392 147.03 164.231 145.142 161.569C142.756 155.829 142.883 159.548 140.344 157.027C139.348 154.89 138.5 152.689 137.805 150.439C135.266 145.698 127.446 150.838 126.431 152.935C128.969 155.58 129.909 153.259 131.508 157.327C129.376 156.728 127.141 155.43 125.11 155.929C124.272 160.196 127.141 160.496 127.268 163.416C127.395 166.335 124.729 165.287 124.729 170.478C131.762 174.421 134.123 179.986 140.826 177.964C145.904 176.517 147.605 177.615 152.2 177.964C154.739 178.139 153.114 176.268 155.932 177.964C160.172 180.685 155.247 180.984 163.067 181.084C162.426 179.992 161.713 178.941 160.934 177.94Z" fill="#0256BA"/>
<path fill-rule="evenodd" clip-rule="evenodd" d="M505.843 203.543C508.941 203.693 507.392 204.142 508.941 201.647C510.489 199.151 508.941 201.422 510.87 199.65L511.683 198.802L511.937 198.527C514.729 195.807 518.487 197.155 519.959 195.183C519.959 194.809 520.746 192.688 516.405 193.661C509.347 195.208 516.1 193.486 503.71 192.663C502.136 190.167 504.117 190.966 500.689 188.121C500.029 187.572 500.689 188.246 499.851 187.322C499.014 186.399 499.724 186.674 498.455 185.95C493.555 183.13 491.092 189.519 491.067 189.543C487.589 195.458 481.724 188.795 473.066 193.536C472.609 196.306 472.558 196.032 474.031 198.278H479.261C481.114 202.695 484.999 202.196 492.946 203.468L492.666 207.836C494.672 208.559 496.094 209.907 498.353 210.73C499.318 205.914 498.506 207.935 497.947 206.638C497.109 204.641 498.912 206.188 496.551 202.695C500.283 202.545 497.516 202.42 499.217 203.618C500.815 205.098 502.89 205.981 505.082 206.114C505.437 205.49 505.081 206.114 505.538 204.966C505.64 204.891 505.818 203.668 505.843 203.543Z" fill="#0256BA"/>
<path fill-rule="evenodd" clip-rule="evenodd" d="M392.837 200.299C390.095 198.178 384.916 193.911 384.18 190.467C383.215 185.925 383.824 188.421 382.478 186.075C379.94 186.998 380.067 186.25 378.975 188.321C380.524 189.743 381.514 189.045 381.818 190.941C382.123 192.838 380.981 192.663 381.818 195.932C382.017 196.762 382.37 197.549 382.859 198.253C385.627 202.47 381.895 199.7 384.103 203.119C378.213 204.592 376.131 200.873 371.739 199.176C368.895 204.891 370.52 202.52 370.343 207.661C370.343 209.583 368.21 213.426 367.804 215.771C376.309 216.869 377.451 214.998 384.154 214.848C384.865 221.311 384.408 218.392 388.343 218.991C392.279 219.59 387.302 217.893 398.042 217.868C396.823 215.372 395.757 216.495 396.011 213.825C396.468 208.834 397.813 214.973 395.605 203.469C395.198 201.647 394.005 201.173 392.837 200.299Z" fill="#0256BA"/>
</svg>